<?xml version="1.0" encoding="utf-8"?>
<!-- Generator: Adobe Illustrator 16.0.0, SVG Export Plug-In . SVG Version: 6.00 Build 0)  -->
<!DOCTYPE svg PUBLIC "-//W3C//DTD SVG 1.1//EN" "http://www.w3.org/Graphics/SVG/1.1/DTD/svg11.dtd">
<svg version="1.1" id="letter" xmlns="http://www.w3.org/2000/svg" xmlns:xlink="http://www.w3.org/1999/xlink" x="0px" y="0px"
	  viewBox="0 0 612.467 615.454" enable-background="new 0 0 612.467 615.454"
	 xml:space="preserve">
<g>
	<g>
		<rect x="188.604" y="296.395" fill="none" width="330.962" height="39.318"/>
		
			<text transform="matrix(1 0 0 1 188.6045 326.0039)" fill="#29A8E0" font-family="Arial" font-weight="bold" font-size="40"  letter-spacing="2">COMPANY</text>
	</g>
	<g>
		<path fill="none" stroke="#000000" d="M611.828,382.141c-17.188,69.531-53.516,125.782-108.984,168.75
			c-54.95,42.711-118.359,64.062-190.234,64.062c-86.462,0-160.028-29.688-220.703-89.062C30.969,466.259,0.5,393.212,0.5,306.75
			c0-86.194,30.206-158.984,90.625-218.359C151.281,29.797,224.585,0.5,311.047,0.5c112.5,0,199.347,46.356,260.547,139.062
			c21.351,32.032,34.766,64.325,40.234,96.875H453.234c-26.306-68.75-73.962-103.125-142.969-103.125
			c-46.618,0-85.028,17.322-115.234,51.954c-28.906,33.337-43.359,73.571-43.359,120.704c0,47.656,14.453,88.415,43.359,122.265
			c30.469,35.938,69.141,53.906,116.016,53.906c64.581,0,111.976-33.331,142.188-100H611.828z"/>
	</g>
</g>
</svg>
