<?xml version="1.0" encoding="utf-8"?>
<!-- Generator: Adobe Illustrator 16.0.0, SVG Export Plug-In . SVG Version: 6.00 Build 0)  -->
<!DOCTYPE svg PUBLIC "-//W3C//DTD SVG 1.1//EN" "http://www.w3.org/Graphics/SVG/1.1/DTD/svg11.dtd">
<svg version="1.1" id="letter" xmlns="http://www.w3.org/2000/svg" xmlns:xlink="http://www.w3.org/1999/xlink" x="0px" y="0px"
	  viewBox="0 0 442 597.333" enable-background="new 0 0 442 597.333" xml:space="preserve">
<g>
	<g>
		<g>
			<rect x="43.267" y="57.836" fill="none" width="330.962" height="39.32"/>
			
				<text transform="matrix(1 0 0 1 43.2666 87.4463)" fill="#29A8E0" font-family="Arial" font-weight="bold" font-size="40" letter-spacing="2">BUSINESSES</text>
		</g>
		<g>
			<defs>
				<rect id="SVGID_11_" width="442" height="277.285"/>
			</defs>
			<clipPath id="SVGID_2_">
				<use xlink:href="#SVGID_11_"  overflow="visible"/>
			</clipPath>
			<g clip-path="url(#SVGID_2_)">
				<g>
					<path fill="none" stroke="#000000" d="M384.854,543.691c-27.344,23.438-57.684,38.416-91.016,44.922
						c-13.806,2.869-29.949,4.688-48.438,5.469c-7.556,0.263-16.277,0.525-26.172,0.781H3.213V2.676h182.422
						c22.913,0,40.363,0.391,52.344,1.172c19.007,1.044,35.676,3.26,50,6.641c35.413,8.075,64.453,24.744,87.109,50
						c23.438,25.781,35.156,58.337,35.156,97.656c0,53.65-22.918,93.359-68.75,119.141c65.101,22.4,97.656,68.231,97.656,137.5
						C439.15,469.998,421.048,512.966,384.854,543.691z M247.744,144.082c-9.375-5.725-23.181-8.594-41.406-8.594h-58.203v92.188
						h57.422c40.101,0,60.156-15.753,60.156-47.266C265.713,163.223,259.72,151.113,247.744,144.082z M272.354,363.613
						c-11.462-6.25-27.605-9.375-48.438-9.375h-75.781v107.812h75c21.351,0,37.891-3.906,49.609-11.719
						c14.319-9.632,21.484-24.609,21.484-44.922C294.229,385.879,286.936,371.95,272.354,363.613z"/>
				</g>
			</g>
		</g>
	</g>
	<g>
		<defs>
			<rect id="SVGID_13_" x="-9.106" y="277.285" width="461.333" height="323.47"/>
		</defs>
		<clipPath id="SVGID_4_">
			<use xlink:href="#SVGID_13_"  overflow="visible"/>
		</clipPath>
		<g clip-path="url(#SVGID_4_)">
			<g>
				<path fill="none" stroke="#FFFFFF" d="M384.854,543.691c-27.344,23.438-57.684,38.416-91.016,44.922
					c-13.806,2.869-29.949,4.688-48.438,5.469c-7.556,0.263-16.277,0.525-26.172,0.781H3.213V2.676h182.422
					c22.913,0,40.363,0.391,52.344,1.172c19.007,1.044,35.676,3.26,50,6.641c35.413,8.075,64.453,24.744,87.109,50
					c23.438,25.781,35.156,58.337,35.156,97.656c0,53.65-22.918,93.359-68.75,119.141c65.101,22.4,97.656,68.231,97.656,137.5
					C439.15,469.998,421.048,512.966,384.854,543.691z M247.744,144.082c-9.375-5.725-23.181-8.594-41.406-8.594h-58.203v92.188
					h57.422c40.101,0,60.156-15.753,60.156-47.266C265.713,163.223,259.72,151.113,247.744,144.082z M272.354,363.613
					c-11.462-6.25-27.605-9.375-48.438-9.375h-75.781v107.812h75c21.351,0,37.891-3.906,49.609-11.719
					c14.319-9.632,21.484-24.609,21.484-44.922C294.229,385.879,286.936,371.95,272.354,363.613z"/>
			</g>
		</g>
	</g>
</g>
</svg>
