<svg version="1.0" xmlns="http://www.w3.org/2000/svg">
<symbol xmlns="http://www.w3.org/2000/svg" viewBox="0 0 501 501" id="letter-c">
    <style>.st0{fill:#010101}</style>
    <path id="letter-c-carriere.svg" class="st0" d="M208.2,414.9c-32.9,0-59.9-14-81.2-42.1c-21.2-28.1-31.8-71.3-31.8-129.8 c0-49.8,11-88.3,32.9-115.8c21.9-27.4,48.6-41.1,80.1-41.1c27.8,0,49.3,9.2,64.4,27.7s24.7,42.4,28.8,71.6l91.8-14.4 c-5.5-52.1-25.5-93.5-59.9-124.3C298.7,15.9,256.8,0.5,207.5,0.5C150.9,0.5,102.2,22,61.3,64.9S0,167.2,0,243 c0,86.3,19.3,150.8,57.9,193.5s88.7,64,150.3,64c53,0,95.9-16,128.8-47.9c32.9-32,53.2-75.8,61-131.5l-95.9-21.2 C293.4,376.5,262.1,414.9,208.2,414.9L208.2,414.9L208.2,414.9z"/>
</symbol>
</svg>
